<?xml version="1.0" standalone="no"?>
<!DOCTYPE svg PUBLIC "-//W3C//DTD SVG 20010904//EN" "http://www.w3.org/TR/2001/REC-SVG-20010904/DTD/svg10.dtd">
<svg version="1.0" xmlns="http://www.w3.org/2000/svg"
  width="334.000000pt" height="331.000000pt" viewBox="0 0 334.000000 331.000000"
  preserveAspectRatio="xMidYMid meet">

  <g transform="translate(0.000000,331.000000) scale(0.100000,-0.100000)"
    fill="#b80081" stroke="none">
    <path
      d="M1548 3191 c-31 -10 -79 -31 -105 -47 -63 -37 -524 -492 -574 -568
-93 -138 -104 -309 -32 -465 22 -48 113 -143 628 -661 546 -549 604 -611 632
-670 34 -71 53 -148 53 -212 l0 -40 -66 7 c-86 9 -161 35 -226 79 -29 19 -314
297 -634 618 -428 431 -587 596 -607 634 -76 144 -74 308 4 454 27 50 10 35
-190 -165 -203 -203 -223 -227 -257 -299 -33 -69 -38 -89 -42 -174 -5 -110 15
-189 68 -272 16 -25 298 -313 627 -641 555 -553 603 -598 661 -623 135 -59
272 -57 401 4 58 28 100 67 337 304 235 235 275 280 302 336 66 136 66 284 0
420 -28 59 -89 123 -627 665 -441 443 -604 613 -624 651 -32 61 -57 153 -57
211 l0 43 48 0 c61 0 139 -23 217 -63 50 -26 154 -125 651 -621 574 -574 593
-593 630 -670 34 -70 39 -88 42 -173 5 -112 -14 -197 -60 -269 -43 -68 372
334 422 408 57 86 75 146 75 258 0 111 -17 170 -74 257 -49 74 -1167 1189
-1236 1232 -110 69 -267 90 -387 52z" />
  </g>
</svg>